<svg id="visual" viewBox="0 0 900 600" width="900" height="600" xmlns="http://www.w3.org/2000/svg" xmlns:xlink="http://www.w3.org/1999/xlink" version="1.1"><path d="M0 85L82 85L82 169L164 169L164 97L245 97L245 73L327 73L327 79L409 79L409 115L491 115L491 163L573 163L573 61L655 61L655 139L736 139L736 91L818 91L818 133L900 133L900 67L900 0L900 0L818 0L818 0L736 0L736 0L655 0L655 0L573 0L573 0L491 0L491 0L409 0L409 0L327 0L327 0L245 0L245 0L164 0L164 0L82 0L82 0L0 0Z" fill="#fa7268"></path><path d="M0 217L82 217L82 349L164 349L164 289L245 289L245 325L327 325L327 265L409 265L409 271L491 271L491 295L573 295L573 295L655 295L655 223L736 223L736 211L818 211L818 313L900 313L900 343L900 65L900 131L818 131L818 89L736 89L736 137L655 137L655 59L573 59L573 161L491 161L491 113L409 113L409 77L327 77L327 71L245 71L245 95L164 95L164 167L82 167L82 83L0 83Z" fill="#ea5e66"></path><path d="M0 403L82 403L82 469L164 469L164 505L245 505L245 463L327 463L327 427L409 427L409 523L491 523L491 487L573 487L573 421L655 421L655 403L736 403L736 415L818 415L818 433L900 433L900 475L900 341L900 311L818 311L818 209L736 209L736 221L655 221L655 293L573 293L573 293L491 293L491 269L409 269L409 263L327 263L327 323L245 323L245 287L164 287L164 347L82 347L82 215L0 215Z" fill="#d84a64"></path><path d="M0 475L82 475L82 535L164 535L164 541L245 541L245 559L327 559L327 475L409 475L409 559L491 559L491 523L573 523L573 493L655 493L655 481L736 481L736 481L818 481L818 475L900 475L900 517L900 473L900 431L818 431L818 413L736 413L736 401L655 401L655 419L573 419L573 485L491 485L491 521L409 521L409 425L327 425L327 461L245 461L245 503L164 503L164 467L82 467L82 401L0 401Z" fill="#c53762"></path><path d="M0 601L82 601L82 601L164 601L164 601L245 601L245 601L327 601L327 601L409 601L409 601L491 601L491 601L573 601L573 601L655 601L655 601L736 601L736 601L818 601L818 601L900 601L900 601L900 515L900 473L818 473L818 479L736 479L736 479L655 479L655 491L573 491L573 521L491 521L491 557L409 557L409 473L327 473L327 557L245 557L245 539L164 539L164 533L82 533L82 473L0 473Z" fill="#b0235f"></path></svg>